<?xml version="1.0" encoding="UTF-8" standalone="no"?>
<svg
   xmlns:dc="http://purl.org/dc/elements/1.1/"
   xmlns:cc="http://creativecommons.org/ns#"
   xmlns:rdf="http://www.w3.org/1999/02/22-rdf-syntax-ns#"
   xmlns:svg="http://www.w3.org/2000/svg"
   xmlns="http://www.w3.org/2000/svg"
   fill="#693"
   width="48"
   height="48"
   viewBox="0 0 48 48"
   version="1.1"
   id="svg6">
  <metadata
     id="metadata12">
    <rdf:RDF>
      <cc:Work
         rdf:about="">
        <dc:format>image/svg+xml</dc:format>
        <dc:type
           rdf:resource="http://purl.org/dc/dcmitype/StillImage" />
        <dc:title></dc:title>
      </cc:Work>
    </rdf:RDF>
  </metadata>
  <defs
     id="defs10" />
  <path
     d="M 0.45762712,5.7344631 V 42.672316 c 0,2.902261 2.34819198,5.276837 5.27683598,5.276837 H 42.672316 c 2.902261,0 5.276837,-2.374576 5.276837,-5.276837 V 5.7344631 c 0,-2.9022599 -2.374576,-5.27683598 -5.276837,-5.27683598 H 5.7344631 c -2.928644,0 -5.27683598,2.37457608 -5.27683598,5.27683598 z M 32.118646,16.288136 c 0,4.379773 -3.535482,7.915254 -7.915256,7.915254 -4.379774,0 -7.915254,-3.535481 -7.915254,-7.915254 0,-4.379774 3.53548,-7.9152548 7.915254,-7.9152548 4.379774,0 7.915256,3.5354808 7.915256,7.9152548 z M 8.3728812,37.395481 c 0,-5.276835 10.5536728,-8.179097 15.8305088,-8.179097 5.276835,0 15.830509,2.902262 15.830509,8.179097 v 2.638418 H 8.3728812 Z"
     id="path2"
     style="stroke-width:2.63841796" />
  <path
     d="M0 0h24v24H0z"
     fill="none"
     id="path4" />
</svg>
