<?xml version="1.0" encoding="UTF-8" standalone="no"?>
<svg
   xmlns:dc="http://purl.org/dc/elements/1.1/"
   xmlns:cc="http://creativecommons.org/ns#"
   xmlns:rdf="http://www.w3.org/1999/02/22-rdf-syntax-ns#"
   xmlns:svg="http://www.w3.org/2000/svg"
   xmlns="http://www.w3.org/2000/svg"
   xmlns:xlink="http://www.w3.org/1999/xlink"
   id="svg10"
   version="1.1"
   viewBox="0 0 48 48"
   height="48"
   width="48"
   opacity="0.54">
  <metadata
     id="metadata14">
    <rdf:RDF>
      <cc:Work
         rdf:about="">
        <dc:format>image/svg+xml</dc:format>
        <dc:type
           rdf:resource="http://purl.org/dc/dcmitype/StillImage" />
        <dc:title></dc:title>
      </cc:Work>
    </rdf:RDF>
  </metadata>
  <defs
     id="defs3">
    <path
       d="M0 0h48v48H0z"
       id="a" />
  </defs>
  <clipPath
     id="b">
    <use
       id="use5"
       overflow="visible"
       xlink:href="#a" />
  </clipPath>
  <path
     transform="matrix(2.2101695,0,0,2.2101695,-2.420339,-3.6305085)"
     id="path8"
     d="M 20,7 H 16 V 5 C 16,4.45 15.78,3.95 15.41,3.59 15.05,3.22 14.55,3 14,3 H 10 C 8.9,3 8,3.9 8,5 V 7 H 4 C 2.9,7 2,7.9 2,9 v 11 c 0,1.1 0.9,2 2,2 h 16 c 1.1,0 2,-0.9 2,-2 V 9 C 22,7.9 21.1,7 20,7 Z M 10,5 h 4 v 2 h -4 z m 1,13.5 -1,-1 3,-3 -3,-3 1,-1 4,4 z"
     clip-path="url(#b)" />
</svg>
