<?xml version="1.0" encoding="utf-8"?>
<!-- Generator: Adobe Illustrator 25.0.0, SVG Export Plug-In . SVG Version: 6.00 Build 0)  -->
<svg version="1.1" id="Layer_1" xmlns="http://www.w3.org/2000/svg" xmlns:xlink="http://www.w3.org/1999/xlink" x="0px" y="0px"
	 viewBox="0 0 29.5 35.9" style="enable-background:new 0 0 29.5 35.9;" xml:space="preserve">
<style type="text/css">
	.st0{fill:#757575;}
</style>
<g id="draft">
	<path class="st0" d="M0,18V2.4C0,0.7,0.6,0,2.3,0h16.4c1.4,0,2.8,0.6,3.8,1.6l5.4,5.7c1.1,1.1,1.7,2.5,1.6,4v22.3
		c0,1.6-0.7,2.3-2.3,2.3H2.3c-1.6,0-2.3-0.7-2.3-2.4V18z M26.9,33.4V12.9h-7.6c-1.5,0-2.2-0.7-2.2-2.3v-8H2.4v30.8H26.9z M26.9,10.2
		c-0.2-0.3-0.4-0.6-0.6-0.9c-1.9-2-3.9-4.1-5.8-6.1c-0.3-0.2-0.6-0.4-0.9-0.5v7.5H26.9z M14.7,28.2H8.3c-0.8,0-0.9-0.1-0.9-0.9
		c0-1.6,0-1.6,1.5-1.6H21c1,0,1.1,0.1,1.1,1.1V27c0,1.2-0.1,1.2-1.2,1.2H14.7z M20.9,23.1c1.1,0,1.2-0.1,1.2-1.2v-0.2
		c0-1-0.1-1.1-1.1-1.1H8.9c-1.6,0-1.6,0-1.5,1.6c0,0.8,0.2,0.9,0.9,0.9C8.3,23.1,20.9,23.1,20.9,23.1z M20.9,18
		c1.1,0,1.2-0.1,1.2-1.2v-0.2c0-1-0.1-1.1-1.1-1.1H8.9c-1.6,0-1.6,0-1.5,1.6c0,0.8,0.2,0.9,0.9,0.9C8.3,18,20.9,18,20.9,18z"/>
</g>
</svg>
