<?xml version="1.0" encoding="utf-8"?>
<!-- Generator: Adobe Illustrator 25.0.0, SVG Export Plug-In . SVG Version: 6.00 Build 0)  -->
<svg version="1.1" id="Layer_1" xmlns="http://www.w3.org/2000/svg" xmlns:xlink="http://www.w3.org/1999/xlink" x="0px" y="0px"
	 viewBox="0 0 35.6 43.4" style="enable-background:new 0 0 35.6 43.4;" xml:space="preserve">
<style type="text/css">
	.st0{fill:#757575;}
	.st1{fill:#679A40;}
</style>
<path class="st0" d="M18.3,28.2c-1.2,0-2.4,0-3.6,0c-2.1,0-4.3,0-6.4,0c-0.8,0-0.9-0.1-0.9-0.9c0-1.6,0-1.6,1.5-1.6c4,0,8,0,12,0
	C19.9,26.4,19,27.2,18.3,28.2z M16.5,33.8c0,0.7,0.1,1.4,0.2,2.1c-4.8,0-9.6,0-14.4,0c-1.6,0-2.3-0.7-2.3-2.4C0,28.4,0,23.2,0,18
	S0,7.6,0,2.4C0,0.7,0.6,0,2.3,0c5.5,0,10.9,0,16.4,0c1.5,0,2.7,0.5,3.8,1.6c1.8,1.9,3.6,3.8,5.4,5.7c1.1,1.1,1.6,2.4,1.6,4
	c0,4.5,0,9,0,13.6c-0.8-0.3-1.7-0.5-2.6-0.6c0-3.8,0-7.6,0-11.4c-2.6,0-5.1,0-7.6,0c-1.5,0-2.2-0.7-2.2-2.3c0-2.4,0-4.8,0-7.2
	c0-0.2,0-0.5,0-0.8c-4.9,0-9.8,0-14.7,0c0,10.3,0,20.5,0,30.8c4.7,0,9.4,0,14.1,0C16.5,33.5,16.5,33.7,16.5,33.8z M19.6,10.2
	c2.4,0,4.8,0,7.3,0c-0.2-0.4-0.4-0.7-0.6-0.9c-1.9-2-3.9-4.1-5.8-6.1C20.3,3,20,2.9,19.6,2.7C19.6,5.3,19.6,7.8,19.6,10.2z M21,20.6
	c-4,0-8,0-12.1,0c-1.6,0-1.6,0-1.5,1.6c0,0.8,0.2,0.9,0.9,0.9c2.1,0,4.3,0,6.4,0c2,0,4.1,0,6.2,0c1.1,0,1.2-0.1,1.2-1.2
	c0-0.1,0-0.1,0-0.2C22.1,20.7,22,20.6,21,20.6z M21,15.5c-4,0-8,0-12.1,0c-1.6,0-1.6,0-1.5,1.6c0,0.8,0.2,0.9,0.9,0.9
	c2.1,0,4.3,0,6.4,0c2.1,0,4.1,0,6.2,0c1.1,0,1.2-0.1,1.2-1.2c0-0.1,0-0.1,0-0.2C22.1,15.6,22,15.5,21,15.5z"/>
<path class="st1" d="M26.1,24.2c5.3,0,9.6,4.3,9.6,9.6c0,5.3-4.3,9.6-9.6,9.6s-9.6-4.3-9.6-9.6S20.7,24.2,26.1,24.2 M25.1,38
	l6.7-6.7L30.5,30l-5.3,5.3l-2.9-2.9l-1.4,1.4L25.1,38z"/>
</svg>
